<svg width="33" height="33" viewBox="0 0 33 33" fill="none" xmlns="http://www.w3.org/2000/svg">
<path d="M19.8773 17.8316C20.3108 17.2136 20.5663 16.4884 20.616 15.7352C20.6658 14.982 20.5079 14.2295 20.1596 13.5598C19.8113 12.8901 19.2858 12.3288 18.6406 11.9371C17.9953 11.5454 17.2549 11.3382 16.5 11.3382C15.7451 11.3382 15.0047 11.5454 14.3594 11.9371C13.7142 12.3288 13.1887 12.8901 12.8404 13.5598C12.4921 14.2295 12.3342 14.982 12.384 15.7352C12.4337 16.4884 12.6892 17.2136 13.1227 17.8316C12.681 18.0401 12.2942 18.3492 11.9934 18.734C11.7048 19.1023 11.5046 19.532 11.4085 19.99C11.3124 20.448 11.3229 20.922 11.4391 21.3752L13.0092 27.5627C13.1815 28.2352 13.5733 28.8309 14.1225 29.2555C14.6717 29.68 15.3469 29.909 16.0411 29.9063H16.9589C17.6526 29.9092 18.3274 29.6808 18.8765 29.257C19.4257 28.8332 19.8178 28.2384 19.9908 27.5666L21.5609 21.3791C21.6771 20.9258 21.6876 20.4519 21.5915 19.9939C21.4954 19.5359 21.2952 19.1061 21.0066 18.7378C20.7062 18.3516 20.3194 18.0412 19.8773 17.8316ZM16.5 13.4063C16.9079 13.4063 17.3067 13.5272 17.6459 13.7539C17.985 13.9805 18.2494 14.3026 18.4055 14.6795C18.5616 15.0564 18.6025 15.4711 18.5229 15.8711C18.4433 16.2712 18.2469 16.6387 17.9584 16.9272C17.67 17.2156 17.3025 17.4121 16.9024 17.4916C16.5023 17.5712 16.0876 17.5304 15.7107 17.3743C15.3338 17.2182 15.0117 16.9538 14.7851 16.6146C14.5585 16.2754 14.4375 15.8767 14.4375 15.4688C14.4375 14.9218 14.6548 14.3971 15.0416 14.0104C15.4284 13.6236 15.953 13.4063 16.5 13.4063ZM19.5615 20.8712L17.9915 27.0587C17.9315 27.2857 17.7975 27.4862 17.6107 27.6284C17.4239 27.7706 17.195 27.8464 16.9602 27.8438H16.0424C15.8076 27.8464 15.5787 27.7706 15.3919 27.6284C15.2051 27.4862 15.0711 27.2857 15.0111 27.0587L13.4411 20.8712C13.4023 20.7223 13.3987 20.5665 13.4305 20.4159C13.4622 20.2654 13.5285 20.1243 13.6241 20.0037C13.7246 19.8749 13.8533 19.7709 14.0004 19.6998C14.1475 19.6287 14.309 19.5924 14.4723 19.5938H18.5329C18.6962 19.5924 18.8577 19.6287 19.0048 19.6998C19.1518 19.7709 19.2806 19.8749 19.3811 20.0037C19.4762 20.1245 19.542 20.2657 19.5733 20.4162C19.6046 20.5668 19.6006 20.7225 19.5615 20.8712ZM9.28125 16.5C9.2798 17.1532 9.36652 17.8036 9.53907 18.4336C9.60553 18.6948 9.5671 18.9716 9.432 19.2048C9.2969 19.438 9.07588 19.6091 8.81624 19.6814C8.5566 19.7537 8.27898 19.7214 8.04281 19.5916C7.80664 19.4617 7.63068 19.2446 7.55262 18.9866C7.1694 17.608 7.11016 16.1593 7.3795 14.754C7.64885 13.3486 8.23949 12.0246 9.10529 10.8853C9.97109 9.74604 11.0886 8.82238 12.3705 8.1865C13.6524 7.55063 15.0639 7.21977 16.4948 7.21977C17.9258 7.21977 19.3373 7.55063 20.6192 8.1865C21.9011 8.82238 23.0186 9.74604 23.8844 10.8853C24.7502 12.0246 25.3408 13.3486 25.6102 14.754C25.8795 16.1593 25.8203 17.608 25.4371 18.9866C25.3438 19.2245 25.1655 19.4194 24.9368 19.5333C24.708 19.6473 24.4451 19.6722 24.199 19.6034C23.9529 19.5345 23.7412 19.3767 23.6048 19.1606C23.4684 18.9445 23.4172 18.6854 23.4609 18.4336C23.7333 17.4418 23.7907 16.4032 23.6291 15.3875C23.4674 14.3717 23.0906 13.4022 22.5239 12.5439C21.9571 11.6856 21.2135 10.9583 20.3428 10.4108C19.4721 9.86329 18.4944 9.50815 17.4753 9.36918C16.4562 9.23021 15.4192 9.31062 14.4337 9.60503C13.4482 9.89944 12.537 10.4011 11.7611 11.0763C10.9852 11.7515 10.3626 12.5847 9.93488 13.5201C9.5072 14.4555 9.28435 15.4715 9.28125 16.5ZM29.9063 16.5C29.9075 18.7041 29.3648 20.8744 28.3264 22.8186C27.288 24.7627 25.7859 26.4206 23.9534 27.6452C23.726 27.7974 23.4475 27.853 23.1792 27.7998C22.9109 27.7466 22.6746 27.589 22.5225 27.3617C22.3704 27.1343 22.3148 26.8558 22.368 26.5875C22.4211 26.3192 22.5787 26.0829 22.8061 25.9308C24.8287 24.5781 26.3628 22.611 27.1818 20.3197C28.0008 18.0285 28.0614 15.5346 27.3546 13.2063C26.6478 10.8779 25.2111 8.83858 23.2565 7.3893C21.302 5.94003 18.9332 5.15763 16.5 5.15763C14.0668 5.15763 11.698 5.94003 9.74347 7.3893C7.78892 8.83858 6.35219 10.8779 5.64538 13.2063C4.93858 15.5346 4.99916 18.0285 5.81819 20.3197C6.63723 22.611 8.1713 24.5781 10.1939 25.9308C10.4213 26.0829 10.5789 26.3192 10.632 26.5875C10.6852 26.8558 10.6296 27.1343 10.4775 27.3617C10.3254 27.589 10.0891 27.7466 9.82081 27.7998C9.55247 27.853 9.27399 27.7974 9.04664 27.6452C7.12177 26.3578 5.56321 24.5936 4.52284 22.5247C3.48246 20.4558 2.99575 18.1527 3.11011 15.8398C3.22448 13.5269 3.93602 11.283 5.17542 9.32681C6.41482 7.37063 8.13981 5.76886 10.1823 4.67755C12.2248 3.58625 14.5152 3.04264 16.8302 3.09968C19.1453 3.15672 21.4061 3.81247 23.3924 5.00304C25.3786 6.1936 27.0226 7.87838 28.1642 9.89322C29.3058 11.9081 29.9059 14.1843 29.9063 16.5Z" fill="black"/>
</svg>
